<svg width="333" height="92" viewBox="0 0 333 92" fill="none" xmlns="http://www.w3.org/2000/svg">
<path d="M91.0889 65.8481C91.7042 66.5162 92.3723 66.9909 93.0931 67.2722C93.8139 67.5535 94.5699 67.6941 95.361 67.6941C96.117 67.6941 96.8114 67.5447 97.4444 67.2458C98.0773 66.9469 98.6223 66.4723 99.0794 65.8218C99.5541 65.1537 99.9233 64.2922 100.187 63.2374C100.451 62.1825 100.583 60.8991 100.583 59.3872C100.583 57.9455 100.477 56.7324 100.266 55.7479C100.055 54.7634 99.7562 53.9722 99.3695 53.3745C99.0003 52.7592 98.5519 52.3196 98.0245 52.0559C97.4971 51.7922 96.9081 51.6604 96.2576 51.6604C95.0621 51.6604 94.0776 51.8801 93.3041 52.3196C92.5305 52.7592 91.7921 53.4009 91.0889 54.2447V65.8481ZM90.5878 49.3133C91.6602 48.1706 92.8733 47.2388 94.2271 46.5179C95.5984 45.7796 97.2246 45.4104 99.1057 45.4104C100.53 45.4104 101.848 45.7268 103.061 46.3597C104.275 46.9926 105.321 47.9068 106.2 49.1023C107.079 50.2978 107.764 51.7658 108.257 53.5063C108.766 55.2293 109.021 57.1895 109.021 59.3872C109.021 61.4441 108.731 63.3429 108.151 65.0834C107.589 66.8239 106.789 68.3358 105.751 69.6192C104.732 70.9026 103.501 71.9047 102.059 72.6256C100.635 73.3464 99.053 73.7068 97.3125 73.7068C95.8884 73.7068 94.6929 73.5046 93.726 73.1002C92.759 72.6959 91.88 72.1509 91.0889 71.4652V81.961H82.9138V45.9378H87.9771C88.9967 45.9378 89.6648 46.3949 89.9813 47.3091L90.5878 49.3133Z" fill="#FFF900"/>
<path d="M125.857 45.5158C127.931 45.5158 129.821 45.8411 131.526 46.4916C133.232 47.1421 134.691 48.0739 135.904 49.2869C137.135 50.5 138.084 51.9768 138.752 53.7173C139.438 55.4402 139.781 57.3829 139.781 59.5454C139.781 61.7254 139.438 63.6945 138.752 65.4526C138.084 67.1931 137.135 68.6787 135.904 69.9093C134.691 71.1224 133.232 72.063 131.526 72.731C129.821 73.3815 127.931 73.7068 125.857 73.7068C123.764 73.7068 121.857 73.3815 120.134 72.731C118.429 72.063 116.952 71.1224 115.704 69.9093C114.473 68.6787 113.515 67.1931 112.829 65.4526C112.161 63.6945 111.827 61.7254 111.827 59.5454C111.827 57.3829 112.161 55.4402 112.829 53.7173C113.515 51.9768 114.473 50.5 115.704 49.2869C116.952 48.0739 118.429 47.1421 120.134 46.4916C121.857 45.8411 123.764 45.5158 125.857 45.5158ZM125.857 67.6414C127.738 67.6414 129.118 66.9821 129.997 65.6635C130.893 64.3274 131.342 62.3056 131.342 59.5981C131.342 56.8907 130.893 54.8777 129.997 53.5591C129.118 52.2405 127.738 51.5812 125.857 51.5812C123.923 51.5812 122.507 52.2405 121.611 53.5591C120.714 54.8777 120.266 56.8907 120.266 59.5981C120.266 62.3056 120.714 64.3274 121.611 65.6635C122.507 66.9821 123.923 67.6414 125.857 67.6414Z" fill="#FFF900"/>
<path d="M152.073 65.8481C152.688 66.5162 153.356 66.9909 154.077 67.2722C154.798 67.5535 155.554 67.6941 156.345 67.6941C157.101 67.6941 157.795 67.5447 158.428 67.2458C159.061 66.9469 159.606 66.4723 160.063 65.8218C160.538 65.1537 160.907 64.2922 161.171 63.2374C161.434 62.1825 161.566 60.8991 161.566 59.3872C161.566 57.9455 161.461 56.7324 161.25 55.7479C161.039 54.7634 160.74 53.9722 160.353 53.3745C159.984 52.7592 159.536 52.3196 159.008 52.0559C158.481 51.7922 157.892 51.6604 157.241 51.6604C156.046 51.6604 155.061 51.8801 154.288 52.3196C153.514 52.7592 152.776 53.4009 152.073 54.2447V65.8481ZM151.571 49.3133C152.644 48.1706 153.857 47.2388 155.211 46.5179C156.582 45.7796 158.208 45.4104 160.089 45.4104C161.513 45.4104 162.832 45.7268 164.045 46.3597C165.258 46.9926 166.304 47.9068 167.183 49.1023C168.062 50.2978 168.748 51.7658 169.24 53.5063C169.75 55.2293 170.005 57.1895 170.005 59.3872C170.005 61.4441 169.715 63.3429 169.135 65.0834C168.572 66.8239 167.772 68.3358 166.735 69.6192C165.715 70.9026 164.485 71.9047 163.043 72.6256C161.619 73.3464 160.037 73.7068 158.296 73.7068C156.872 73.7068 155.677 73.5046 154.71 73.1002C153.743 72.6959 152.864 72.1509 152.073 71.4652V81.961H143.897V45.9378H148.961C149.98 45.9378 150.648 46.3949 150.965 47.3091L151.571 49.3133Z" fill="#FFF900"/>
<path d="M191.548 51.9241C191.337 52.2581 191.109 52.4954 190.863 52.6361C190.634 52.7767 190.335 52.8471 189.966 52.8471C189.579 52.8471 189.192 52.7679 188.806 52.6097C188.419 52.4339 187.997 52.2493 187.54 52.0559C187.1 51.8625 186.599 51.6867 186.037 51.5285C185.474 51.3527 184.832 51.2648 184.111 51.2648C183.074 51.2648 182.274 51.467 181.712 51.8713C181.167 52.2581 180.894 52.8031 180.894 53.5063C180.894 54.0162 181.07 54.4381 181.422 54.7722C181.791 55.1062 182.274 55.4051 182.872 55.6688C183.47 55.9149 184.147 56.1523 184.903 56.3808C185.659 56.6094 186.432 56.8643 187.223 57.1456C188.014 57.4269 188.788 57.7609 189.544 58.1477C190.3 58.5169 190.977 58.9828 191.575 59.5454C192.172 60.0904 192.647 60.7585 192.999 61.5496C193.368 62.3407 193.552 63.2901 193.552 64.3977C193.552 65.7514 193.306 66.9997 192.814 68.1424C192.322 69.2852 191.583 70.2697 190.599 71.096C189.632 71.9223 188.428 72.564 186.986 73.0211C185.562 73.4782 183.918 73.7068 182.055 73.7068C181.123 73.7068 180.191 73.6189 179.259 73.4431C178.327 73.2673 177.422 73.0299 176.543 72.731C175.681 72.4322 174.882 72.0805 174.143 71.6762C173.405 71.2542 172.772 70.8059 172.244 70.3312L174.143 67.3249C174.354 66.9733 174.618 66.7008 174.934 66.5074C175.268 66.2964 175.69 66.1909 176.2 66.1909C176.675 66.1909 177.097 66.2964 177.466 66.5074C177.853 66.7184 178.266 66.9469 178.705 67.1931C179.145 67.4392 179.655 67.6677 180.235 67.8787C180.833 68.0897 181.58 68.1952 182.476 68.1952C183.109 68.1952 183.646 68.1336 184.085 68.0106C184.525 67.8699 184.876 67.6853 185.14 67.4568C185.404 67.2282 185.597 66.9733 185.72 66.692C185.843 66.4107 185.905 66.1206 185.905 65.8217C185.905 65.2767 185.72 64.8284 185.351 64.4768C184.982 64.1252 184.498 63.8263 183.901 63.5802C183.303 63.3165 182.617 63.0791 181.844 62.8682C181.088 62.6396 180.314 62.3847 179.523 62.1034C178.732 61.8221 177.949 61.4881 177.176 61.1013C176.42 60.6969 175.743 60.1959 175.145 59.5981C174.547 58.9828 174.064 58.2356 173.695 57.3566C173.326 56.4775 173.141 55.4139 173.141 54.1656C173.141 53.0053 173.361 51.9065 173.8 50.8692C174.257 49.8144 174.934 48.8914 175.831 48.1002C176.728 47.3091 177.853 46.685 179.206 46.2279C180.56 45.7532 182.142 45.5158 183.953 45.5158C184.938 45.5158 185.887 45.6037 186.801 45.7795C187.733 45.9554 188.603 46.2015 189.412 46.5179C190.221 46.8344 190.959 47.2124 191.627 47.6519C192.295 48.0738 192.884 48.5397 193.394 49.0496L191.548 51.9241Z" fill="#8840FF"/>
<path d="M207.44 73.7068C206.139 73.7068 204.988 73.5222 203.986 73.153C203.001 72.7662 202.166 72.23 201.48 71.5443C200.812 70.8411 200.302 69.9972 199.951 69.0127C199.599 68.0281 199.423 66.9293 199.423 65.7163V51.5812H197.103C196.681 51.5812 196.32 51.4494 196.021 51.1857C195.723 50.9044 195.573 50.5 195.573 49.9726V46.7817L199.924 45.9378L201.533 39.2658C201.744 38.4219 202.342 38 203.326 38H207.598V45.9905H214.376V51.5812H207.598V65.1625C207.598 65.7954 207.748 66.3228 208.047 66.7447C208.363 67.1491 208.812 67.3513 209.392 67.3513C209.691 67.3513 209.937 67.3249 210.13 67.2722C210.341 67.2018 210.517 67.1315 210.658 67.0612C210.816 66.9733 210.956 66.903 211.079 66.8502C211.22 66.7799 211.378 66.7447 211.554 66.7447C211.8 66.7447 211.994 66.8063 212.134 66.9293C212.293 67.0348 212.451 67.2106 212.609 67.4568L215.088 71.3334C214.033 72.1245 212.846 72.7222 211.528 73.1266C210.209 73.5134 208.847 73.7068 207.44 73.7068Z" fill="#8840FF"/>
<path d="M225.546 50.1572C226.39 48.6804 227.357 47.52 228.447 46.6762C229.555 45.8323 230.82 45.4103 232.245 45.4103C233.475 45.4103 234.477 45.7004 235.251 46.2806L234.723 52.2933C234.636 52.68 234.486 52.9438 234.275 53.0844C234.082 53.225 233.809 53.2954 233.458 53.2954C233.317 53.2954 233.132 53.2866 232.904 53.269C232.675 53.2514 232.438 53.2338 232.192 53.2163C231.946 53.1811 231.691 53.1547 231.427 53.1371C231.181 53.102 230.952 53.0844 230.741 53.0844C229.546 53.0844 228.588 53.4009 227.867 54.0338C227.164 54.6667 226.566 55.5457 226.074 56.6709V73.2848H217.899V45.9378H222.751C223.155 45.9378 223.489 45.9729 223.753 46.0433C224.034 46.1136 224.263 46.2279 224.439 46.3861C224.632 46.5267 224.773 46.7201 224.861 46.9663C224.966 47.2124 225.054 47.5113 225.124 47.8629L225.546 50.1572Z" fill="#8840FF"/>
<path d="M254.583 56.3281C254.583 55.6776 254.496 55.0447 254.32 54.4293C254.162 53.814 253.889 53.269 253.502 52.7943C253.133 52.302 252.641 51.9065 252.025 51.6076C251.41 51.3087 250.663 51.1593 249.784 51.1593C248.237 51.1593 247.024 51.6076 246.145 52.5042C245.266 53.3833 244.685 54.6579 244.404 56.3281H254.583ZM244.299 61.0749C244.562 63.3604 245.257 65.0218 246.382 66.0591C247.507 67.0788 248.958 67.5886 250.733 67.5886C251.683 67.5886 252.5 67.4743 253.186 67.2458C253.871 67.0172 254.478 66.7623 255.005 66.481C255.55 66.1997 256.043 65.9448 256.482 65.7163C256.939 65.4877 257.414 65.3734 257.906 65.3734C258.557 65.3734 259.049 65.6108 259.383 66.0855L261.756 69.0127C260.913 69.9796 259.998 70.7708 259.014 71.3861C258.047 71.9838 257.045 72.4585 256.008 72.8102C254.988 73.1442 253.959 73.3727 252.922 73.4958C251.902 73.6365 250.927 73.7068 249.995 73.7068C248.079 73.7068 246.277 73.3991 244.589 72.7838C242.919 72.1509 241.451 71.2191 240.185 69.9884C238.937 68.7578 237.943 67.2282 237.205 65.3998C236.484 63.5714 236.124 61.4441 236.124 59.0179C236.124 57.1895 236.431 55.4578 237.047 53.8228C237.679 52.1878 238.576 50.7549 239.736 49.5243C240.914 48.2936 242.33 47.3179 243.982 46.5971C245.652 45.8762 247.534 45.5158 249.626 45.5158C251.437 45.5158 253.089 45.7971 254.583 46.3597C256.095 46.9223 257.388 47.7398 258.46 48.8122C259.55 49.8847 260.394 51.2032 260.992 52.7679C261.607 54.3151 261.915 56.0731 261.915 58.0422C261.915 58.6575 261.888 59.1586 261.836 59.5454C261.783 59.9322 261.686 60.2398 261.546 60.4684C261.405 60.6969 261.211 60.8551 260.965 60.9431C260.737 61.031 260.438 61.0749 260.069 61.0749H244.299Z" fill="#8840FF"/>
<path d="M280.114 62.1561C278.479 62.2265 277.134 62.3671 276.079 62.5781C275.025 62.789 274.189 63.0528 273.574 63.3692C272.959 63.6857 272.528 64.0461 272.282 64.4504C272.053 64.8548 271.939 65.2943 271.939 65.769C271.939 66.7008 272.194 67.3601 272.704 67.7469C273.214 68.1161 273.961 68.3007 274.945 68.3007C276 68.3007 276.923 68.1161 277.714 67.7469C278.506 67.3777 279.306 66.7799 280.114 65.9536V62.1561ZM265.399 49.7352C267.052 48.276 268.88 47.1948 270.884 46.4916C272.906 45.7708 275.069 45.4103 277.372 45.4103C279.024 45.4103 280.51 45.6828 281.828 46.2279C283.165 46.7553 284.29 47.5025 285.204 48.4694C286.136 49.4188 286.848 50.5528 287.34 51.8713C287.832 53.1899 288.078 54.6315 288.078 56.1962V73.2848H284.334C283.56 73.2848 282.971 73.1794 282.567 72.9684C282.18 72.7574 281.855 72.3179 281.591 71.6498L281.011 70.1466C280.325 70.7268 279.666 71.2367 279.033 71.6762C278.4 72.1157 277.741 72.4937 277.055 72.8102C276.387 73.109 275.666 73.3288 274.893 73.4694C274.137 73.6277 273.293 73.7068 272.361 73.7068C271.113 73.7068 269.979 73.5485 268.959 73.2321C267.939 72.8981 267.069 72.4146 266.348 71.7817C265.645 71.1488 265.1 70.3664 264.713 69.4346C264.327 68.4853 264.133 67.3952 264.133 66.1646C264.133 65.18 264.379 64.1867 264.872 63.1846C265.364 62.1649 266.217 61.2419 267.43 60.4156C268.643 59.5717 270.278 58.8685 272.335 58.3059C274.392 57.7433 276.985 57.4269 280.114 57.3566V56.1962C280.114 54.5964 279.78 53.4448 279.112 52.7416C278.462 52.0208 277.53 51.6603 276.317 51.6603C275.35 51.6603 274.559 51.7658 273.943 51.9768C273.328 52.1878 272.774 52.4251 272.282 52.6888C271.807 52.9525 271.341 53.1899 270.884 53.4009C270.427 53.6118 269.882 53.7173 269.249 53.7173C268.687 53.7173 268.212 53.5767 267.825 53.2954C267.438 53.0141 267.122 52.68 266.876 52.2933L265.399 49.7352Z" fill="#8840FF"/>
<path d="M293.304 73.2848V45.9378H298.367C299.387 45.9378 300.055 46.3949 300.372 47.3091L300.82 48.7859C301.277 48.3112 301.752 47.8805 302.244 47.4937C302.736 47.0893 303.264 46.7465 303.826 46.4652C304.406 46.1663 305.022 45.9378 305.672 45.7795C306.34 45.6037 307.07 45.5158 307.861 45.5158C309.514 45.5158 310.876 45.9466 311.949 46.808C313.039 47.6519 313.865 48.7859 314.427 50.2099C314.885 49.366 315.438 48.6452 316.089 48.0475C316.757 47.4497 317.469 46.9663 318.225 46.5971C318.998 46.2279 319.807 45.9554 320.651 45.7795C321.513 45.6037 322.365 45.5158 323.209 45.5158C324.774 45.5158 326.163 45.7532 327.376 46.2279C328.589 46.685 329.6 47.3618 330.408 48.2584C331.235 49.1375 331.859 50.2275 332.281 51.5285C332.703 52.8119 332.914 54.2711 332.914 55.9061V73.2848H324.739V55.9061C324.739 53.0756 323.526 51.6603 321.099 51.6603C319.992 51.6603 319.069 52.0295 318.33 52.7679C317.61 53.4888 317.249 54.5348 317.249 55.9061V73.2848H309.074V55.9061C309.074 54.3414 308.766 53.2426 308.151 52.6097C307.536 51.9768 306.63 51.6603 305.435 51.6603C304.696 51.6603 303.993 51.8274 303.325 52.1614C302.675 52.4954 302.059 52.9437 301.479 53.5063V73.2848H293.304Z" fill="#8840FF"/>
<path d="M25.0893 45.683C30.688 42.4761 37.112 41.0014 43.5489 41.4453L39.3501 23.1549L20.8905 27.3926L25.0893 45.683Z" fill="white"/>
<path d="M35.0159 88.9246L53.4755 84.687L48.5705 63.32C42.9604 66.4979 36.5453 67.9706 30.1109 67.5576L35.0159 88.9246Z" fill="white"/>
<path d="M65.9357 81.8265L54.7331 19.6236L42.4267 22.4487L46.9009 41.9389C52.2609 43.1375 55.9449 46.0649 56.8278 49.9107C57.7106 53.7564 55.6722 57.9975 51.3716 61.4138L56.5521 83.9807L65.9357 81.8265Z" fill="#8840FF"/>
<path d="M22.7095 91.7496L31.9393 89.6308L26.9126 67.0287C21.5527 65.8301 17.8686 62.9026 16.9858 59.0569C16.103 55.2111 18.1414 50.9701 22.4419 47.5538L17.9677 28.0635L5.66132 30.8886L22.7095 91.7496Z" fill="#8840FF"/>
<path fill-rule="evenodd" clip-rule="evenodd" d="M5.75901 17.9112L4.22071 18.2644L4.23837 18.3413C3.01442 18.6223 1.95222 19.3779 1.28543 20.4421C0.61865 21.5062 0.401904 22.7916 0.682876 24.0156C0.963848 25.2395 1.71952 26.3017 2.78366 26.9685C3.8478 27.6353 5.13324 27.8521 6.35718 27.5711L52.5062 16.977C53.7301 16.696 54.7923 15.9404 55.4591 14.8762C56.1259 13.8121 56.3427 12.5267 56.0617 11.3027C55.7807 10.0788 55.025 9.01656 53.9609 8.34977C52.8968 7.68299 51.6113 7.46624 50.3874 7.74722L48.8491 8.10035L48.4959 6.56205C48.2641 5.55199 47.8355 4.59749 47.2348 3.75304C46.634 2.9086 45.8728 2.19076 44.9946 1.64049C44.1165 1.09023 43.1385 0.718324 42.1166 0.546012C41.0947 0.3737 40.0488 0.404355 39.0388 0.636227C37.3706 1.00845 35.8722 1.92174 34.777 3.23393L33.5 4.72541L32.2431 3.20027C31.3073 2.09712 30.0864 1.27239 28.7136 0.816204C27.3409 0.360016 25.8692 0.289921 24.4593 0.613578C23.0494 0.937236 21.7556 1.64219 20.7192 2.65142C19.6829 3.66064 18.9439 4.9353 18.583 6.33612L18.0994 8.17985L16.3767 7.37699C14.7942 6.6624 13.0175 6.49997 11.3317 6.91575C9.29179 7.38404 7.52145 8.6435 6.41014 10.4171C5.29884 12.1906 4.93759 14.333 5.40588 16.3729L5.75901 17.9112ZM16.4012 21.9452L19.4775 21.239C19.3839 20.8311 19.4561 20.4026 19.6784 20.048C19.9006 19.6933 20.2546 19.4414 20.6626 19.3478C21.0705 19.2541 21.499 19.3264 21.8536 19.5486C22.2083 19.7708 22.4602 20.1249 22.5538 20.5328L25.6301 19.8266C25.3492 18.6028 24.5936 17.5407 23.5295 16.874C22.4655 16.2073 21.1802 15.9905 19.9564 16.2715C18.7326 16.5524 17.6705 17.308 17.0037 18.3721C16.337 19.4361 16.1203 20.7214 16.4012 21.9452ZM15.4669 10.8246L16.1731 13.9008C14.9493 14.1818 13.8872 14.9374 13.2205 16.0014C12.5537 17.0654 12.337 18.3508 12.618 19.5746L9.54168 20.2808C9.07344 18.2411 9.43465 16.0989 10.5458 14.3255C11.657 12.5521 13.4272 11.2928 15.4669 10.8246ZM28.4798 11.0757C28.8878 10.982 29.3162 11.0543 29.6709 11.2765C30.0256 11.4988 30.2774 11.8528 30.3711 12.2607L33.4474 11.5545C33.1664 10.3307 32.4108 9.26862 31.3468 8.6019C30.2828 7.93518 28.9975 7.71846 27.7736 7.9994C26.5498 8.28035 25.4877 9.03594 24.821 10.1C24.1543 11.164 23.9376 12.4493 24.2185 13.6731L27.2948 12.9669C27.2011 12.559 27.2734 12.1306 27.4956 11.7759C27.7179 11.4212 28.0719 11.1693 28.4798 11.0757ZM48.7047 14.5292L45.6284 15.2354C45.3474 14.0116 44.5918 12.9495 43.5278 12.2828C42.4638 11.616 41.1785 11.3993 39.9546 11.6803L39.2484 8.60397C41.2881 8.13573 43.4303 8.49694 45.2037 9.60814C46.9771 10.7193 48.2364 12.4895 48.7047 14.5292Z" fill="#FFF900"/>
<path d="M71.8185 31.3483C72.402 31.5702 73.0382 31.6141 73.6466 31.4744C74.4625 31.2871 75.1706 30.7834 75.615 30.0741C76.0595 29.3647 76.204 28.5078 76.0167 27.692C75.877 27.0835 75.5601 26.5302 75.1059 26.1019C74.6517 25.6736 74.0808 25.3896 73.4652 25.2858C72.8496 25.182 72.2171 25.2631 71.6476 25.5188C71.0781 25.7744 70.5973 26.1933 70.2658 26.7223C69.9343 27.2512 69.7672 27.8666 69.7855 28.4906C69.8038 29.1146 70.0067 29.7192 70.3685 30.2278C70.7304 30.7365 71.235 31.1264 71.8185 31.3483Z" fill="#FFF900"/>
<path d="M66.207 20.2276L69.2833 19.5214C68.9087 17.8897 67.9012 16.4736 66.4825 15.5846C65.0638 14.6956 63.3501 14.4067 61.7183 14.7813L62.4245 17.8576C63.2404 17.6703 64.0973 17.8147 64.8066 18.2592C65.516 18.7037 66.0197 19.4118 66.207 20.2276Z" fill="#FFF900"/>
<path d="M28.3426 64.158C31.8719 64.7109 35.4753 64.5659 38.9487 63.7313C42.4384 62.9675 45.7442 61.5263 48.679 59.4895C52.4997 56.734 54.3939 53.4167 53.7512 50.617C53.1085 47.8173 49.9571 45.6582 45.3171 44.8449C41.7879 44.292 38.1845 44.437 34.7111 45.2717C31.2214 46.0354 27.9155 47.4766 24.9808 49.5134C21.1601 52.2689 19.2659 55.5862 19.9086 58.3859C20.5513 61.1857 23.7027 63.3447 28.3426 64.158Z" fill="#FFF900"/>
</svg>
