<svg width="251" height="44" viewBox="0 0 251 44" fill="none" xmlns="http://www.w3.org/2000/svg">
<path d="M9.08887 27.8481C9.7042 28.5162 10.3723 28.9909 11.0931 29.2722C11.8139 29.5535 12.5699 29.6941 13.361 29.6941C14.117 29.6941 14.8114 29.5447 15.4444 29.2458C16.0773 28.9469 16.6223 28.4723 17.0794 27.8218C17.5541 27.1537 17.9233 26.2922 18.187 25.2374C18.4507 24.1825 18.5825 22.8991 18.5825 21.3872C18.5825 19.9455 18.4771 18.7324 18.2661 17.7479C18.0551 16.7634 17.7562 15.9722 17.3695 15.3745C17.0003 14.7592 16.5519 14.3196 16.0245 14.0559C15.4971 13.7922 14.9081 13.6604 14.2576 13.6604C13.0621 13.6604 12.0776 13.8801 11.3041 14.3196C10.5305 14.7592 9.7921 15.4009 9.08887 16.2447V27.8481ZM8.58781 11.3133C9.66025 10.1706 10.8733 9.23876 12.2271 8.51795C13.5984 7.77955 15.2246 7.41035 17.1057 7.41035C18.5298 7.41035 19.8484 7.72681 21.0614 8.35972C22.2745 8.99263 23.3206 9.90684 24.1996 11.1023C25.0787 12.2978 25.7643 13.7658 26.2566 15.5063C26.7664 17.2293 27.0214 19.1895 27.0214 21.3872C27.0214 23.4441 26.7313 25.3429 26.1511 27.0834C25.5885 28.8239 24.7886 30.3358 23.7513 31.6192C22.7316 32.9026 21.501 33.9047 20.0593 34.6256C18.6353 35.3464 17.053 35.7068 15.3125 35.7068C13.8884 35.7068 12.6929 35.5046 11.726 35.1002C10.759 34.6959 9.88001 34.1509 9.08887 33.4652V43.961H0.913757V7.93778H5.97705C6.99674 7.93778 7.66482 8.39488 7.98127 9.30909L8.58781 11.3133Z" fill="#FFF900"/>
<path d="M43.8566 7.51584C45.9311 7.51584 47.8211 7.84108 49.5264 8.49158C51.2317 9.14207 52.691 10.0739 53.904 11.2869C55.1347 12.5 56.0841 13.9768 56.7521 15.7173C57.4378 17.4402 57.7806 19.3829 57.7806 21.5454C57.7806 23.7254 57.4378 25.6945 56.7521 27.4526C56.0841 29.1931 55.1347 30.6787 53.904 31.9093C52.691 33.1224 51.2317 34.063 49.5264 34.731C47.8211 35.3815 45.9311 35.7068 43.8566 35.7068C41.7644 35.7068 39.8569 35.3815 38.134 34.731C36.4286 34.063 34.9518 33.1224 33.7036 31.9093C32.4729 30.6787 31.5148 29.1931 30.8291 27.4526C30.1611 25.6945 29.827 23.7254 29.827 21.5454C29.827 19.3829 30.1611 17.4402 30.8291 15.7173C31.5148 13.9768 32.4729 12.5 33.7036 11.2869C34.9518 10.0739 36.4286 9.14207 38.134 8.49158C39.8569 7.84108 41.7644 7.51584 43.8566 7.51584ZM43.8566 29.6414C45.7377 29.6414 47.1178 28.9821 47.9969 27.6635C48.8935 26.3274 49.3418 24.3056 49.3418 21.5981C49.3418 18.8907 48.8935 16.8777 47.9969 15.5591C47.1178 14.2405 45.7377 13.5812 43.8566 13.5812C41.9227 13.5812 40.5074 14.2405 39.6108 15.5591C38.7142 16.8777 38.2658 18.8907 38.2658 21.5981C38.2658 24.3056 38.7142 26.3274 39.6108 27.6635C40.5074 28.9821 41.9227 29.6414 43.8566 29.6414Z" fill="#FFF900"/>
<path d="M70.0725 27.8481C70.6879 28.5162 71.356 28.9909 72.0768 29.2722C72.7976 29.5535 73.5536 29.6941 74.3447 29.6941C75.1007 29.6941 75.7951 29.5447 76.428 29.2458C77.0609 28.9469 77.606 28.4723 78.0631 27.8218C78.5377 27.1537 78.9069 26.2922 79.1706 25.2374C79.4344 24.1825 79.5662 22.8991 79.5662 21.3872C79.5662 19.9455 79.4607 18.7324 79.2498 17.7479C79.0388 16.7634 78.7399 15.9722 78.3531 15.3745C77.9839 14.7592 77.5356 14.3196 77.0082 14.0559C76.4808 13.7922 75.8918 13.6604 75.2413 13.6604C74.0458 13.6604 73.0613 13.8801 72.2877 14.3196C71.5142 14.7592 70.7758 15.4009 70.0725 16.2447V27.8481ZM69.5715 11.3133C70.6439 10.1706 71.857 9.23876 73.2107 8.51795C74.582 7.77955 76.2083 7.41035 78.0894 7.41035C79.5135 7.41035 80.832 7.72681 82.0451 8.35972C83.2582 8.99263 84.3043 9.90684 85.1833 11.1023C86.0624 12.2978 86.748 13.7658 87.2403 15.5063C87.7501 17.2293 88.005 19.1895 88.005 21.3872C88.005 23.4441 87.715 25.3429 87.1348 27.0834C86.5722 28.8239 85.7723 30.3358 84.735 31.6192C83.7153 32.9026 82.4846 33.9047 81.043 34.6256C79.619 35.3464 78.0367 35.7068 76.2962 35.7068C74.8721 35.7068 73.6766 35.5046 72.7097 35.1002C71.7427 34.6959 70.8637 34.1509 70.0725 33.4652V43.961H61.8974V7.93778H66.9607C67.9804 7.93778 68.6485 8.39488 68.9649 9.30909L69.5715 11.3133Z" fill="#FFF900"/>
<path d="M109.548 13.9241C109.337 14.2581 109.109 14.4954 108.863 14.6361C108.634 14.7767 108.335 14.8471 107.966 14.8471C107.579 14.8471 107.192 14.7679 106.806 14.6097C106.419 14.4339 105.997 14.2493 105.54 14.0559C105.1 13.8625 104.599 13.6867 104.037 13.5285C103.474 13.3527 102.832 13.2648 102.111 13.2648C101.074 13.2648 100.274 13.467 99.7117 13.8713C99.1667 14.2581 98.8942 14.8031 98.8942 15.5063C98.8942 16.0162 99.07 16.4381 99.4216 16.7722C99.7908 17.1062 100.274 17.4051 100.872 17.6688C101.47 17.9149 102.147 18.1523 102.903 18.3808C103.659 18.6094 104.432 18.8643 105.223 19.1456C106.014 19.4269 106.788 19.7609 107.544 20.1477C108.3 20.5169 108.977 20.9828 109.575 21.5454C110.172 22.0904 110.647 22.7585 110.999 23.5496C111.368 24.3407 111.552 25.2901 111.552 26.3977C111.552 27.7514 111.306 28.9997 110.814 30.1424C110.322 31.2852 109.583 32.2697 108.599 33.096C107.632 33.9223 106.428 34.564 104.986 35.0211C103.562 35.4782 101.918 35.7068 100.055 35.7068C99.1227 35.7068 98.191 35.6189 97.2592 35.4431C96.3274 35.2673 95.422 35.0299 94.5429 34.731C93.6815 34.4322 92.8815 34.0805 92.1431 33.6762C91.4047 33.2542 90.7718 32.8059 90.2444 32.3312L92.1431 29.3249C92.3541 28.9733 92.6178 28.7008 92.9343 28.5074C93.2683 28.2964 93.6903 28.1909 94.2001 28.1909C94.6748 28.1909 95.0967 28.2964 95.4659 28.5074C95.8527 28.7184 96.2659 28.9469 96.7054 29.1931C97.1449 29.4392 97.6547 29.6677 98.2349 29.8787C98.8327 30.0897 99.5798 30.1952 100.476 30.1952C101.109 30.1952 101.646 30.1336 102.085 30.0106C102.525 29.8699 102.876 29.6853 103.14 29.4568C103.404 29.2282 103.597 28.9733 103.72 28.692C103.843 28.4107 103.905 28.1206 103.905 27.8217C103.905 27.2767 103.72 26.8284 103.351 26.4768C102.982 26.1252 102.498 25.8263 101.901 25.5802C101.303 25.3165 100.617 25.0791 99.8436 24.8682C99.0876 24.6396 98.314 24.3847 97.5229 24.1034C96.7317 23.8221 95.9494 23.4881 95.1758 23.1013C94.4199 22.6969 93.743 22.1959 93.1452 21.5981C92.5475 20.9828 92.064 20.2356 91.6948 19.3566C91.3256 18.4775 91.141 17.4139 91.141 16.1656C91.141 15.0053 91.3608 13.9065 91.8003 12.8692C92.2574 11.8144 92.9343 10.8914 93.8309 10.1002C94.7275 9.30908 95.8527 8.68496 97.2064 8.22785C98.5602 7.75317 100.142 7.51583 101.953 7.51583C102.938 7.51583 103.887 7.60373 104.801 7.77954C105.733 7.95535 106.603 8.20148 107.412 8.51794C108.221 8.83439 108.959 9.21238 109.627 9.65191C110.295 10.0738 110.884 10.5397 111.394 11.0496L109.548 13.9241Z" fill="#8840FF"/>
<path d="M125.44 35.7068C124.139 35.7068 122.988 35.5222 121.986 35.153C121.001 34.7662 120.166 34.23 119.48 33.5443C118.812 32.8411 118.302 31.9972 117.951 31.0127C117.599 30.0281 117.423 28.9293 117.423 27.7163V13.5812H115.103C114.681 13.5812 114.32 13.4494 114.021 13.1857C113.723 12.9044 113.573 12.5 113.573 11.9726V8.78165L117.924 7.93777L119.533 1.26582C119.744 0.42194 120.342 0 121.326 0H125.598V7.99051H132.376V13.5812H125.598V27.1625C125.598 27.7954 125.748 28.3228 126.047 28.7447C126.363 29.1491 126.812 29.3513 127.392 29.3513C127.691 29.3513 127.937 29.3249 128.13 29.2722C128.341 29.2018 128.517 29.1315 128.658 29.0612C128.816 28.9733 128.956 28.903 129.079 28.8502C129.22 28.7799 129.378 28.7447 129.554 28.7447C129.8 28.7447 129.994 28.8063 130.134 28.9293C130.293 29.0348 130.451 29.2106 130.609 29.4568L133.088 33.3334C132.033 34.1245 130.846 34.7222 129.528 35.1266C128.209 35.5134 126.847 35.7068 125.44 35.7068Z" fill="#8840FF"/>
<path d="M143.546 12.1572C144.39 10.6804 145.357 9.52005 146.447 8.67617C147.555 7.83228 148.82 7.41034 150.245 7.41034C151.475 7.41034 152.477 7.70043 153.251 8.2806L152.723 14.2933C152.636 14.68 152.486 14.9438 152.275 15.0844C152.082 15.225 151.809 15.2954 151.458 15.2954C151.317 15.2954 151.132 15.2866 150.904 15.269C150.675 15.2514 150.438 15.2338 150.192 15.2163C149.946 15.1811 149.691 15.1547 149.427 15.1371C149.181 15.102 148.952 15.0844 148.741 15.0844C147.546 15.0844 146.588 15.4009 145.867 16.0338C145.164 16.6667 144.566 17.5457 144.074 18.6709V35.2848H135.899V7.93777H140.751C141.155 7.93777 141.489 7.97293 141.753 8.04326C142.034 8.11358 142.263 8.22785 142.439 8.38608C142.632 8.52673 142.773 8.72012 142.861 8.96625C142.966 9.21238 143.054 9.51126 143.124 9.86288L143.546 12.1572Z" fill="#8840FF"/>
<path d="M172.583 18.3281C172.583 17.6776 172.496 17.0447 172.32 16.4293C172.162 15.814 171.889 15.269 171.502 14.7943C171.133 14.302 170.641 13.9065 170.025 13.6076C169.41 13.3087 168.663 13.1593 167.784 13.1593C166.237 13.1593 165.024 13.6076 164.145 14.5042C163.266 15.3833 162.685 16.6579 162.404 18.3281H172.583ZM162.299 23.0749C162.562 25.3604 163.257 27.0218 164.382 28.0591C165.507 29.0788 166.958 29.5886 168.733 29.5886C169.683 29.5886 170.5 29.4743 171.186 29.2458C171.871 29.0172 172.478 28.7623 173.005 28.481C173.55 28.1997 174.043 27.9448 174.482 27.7163C174.939 27.4877 175.414 27.3734 175.906 27.3734C176.557 27.3734 177.049 27.6108 177.383 28.0855L179.756 31.0127C178.913 31.9796 177.998 32.7708 177.014 33.3861C176.047 33.9838 175.045 34.4585 174.008 34.8102C172.988 35.1442 171.959 35.3727 170.922 35.4958C169.902 35.6365 168.927 35.7068 167.995 35.7068C166.079 35.7068 164.277 35.3991 162.589 34.7838C160.919 34.1509 159.451 33.2191 158.185 31.9884C156.937 30.7578 155.943 29.2282 155.205 27.3998C154.484 25.5714 154.124 23.4441 154.124 21.0179C154.124 19.1895 154.431 17.4578 155.047 15.8228C155.679 14.1878 156.576 12.7549 157.736 11.5243C158.914 10.2936 160.33 9.31787 161.982 8.59705C163.652 7.87623 165.534 7.51583 167.626 7.51583C169.437 7.51583 171.089 7.79712 172.583 8.35971C174.095 8.9223 175.388 9.73981 176.46 10.8122C177.55 11.8847 178.394 13.2032 178.992 14.7679C179.607 16.3151 179.915 18.0731 179.915 20.0422C179.915 20.6575 179.888 21.1586 179.836 21.5454C179.783 21.9322 179.686 22.2398 179.546 22.4684C179.405 22.6969 179.211 22.8551 178.965 22.9431C178.737 23.031 178.438 23.0749 178.069 23.0749H162.299Z" fill="#8840FF"/>
<path d="M198.114 24.1561C196.479 24.2265 195.134 24.3671 194.079 24.5781C193.025 24.789 192.189 25.0528 191.574 25.3692C190.959 25.6857 190.528 26.0461 190.282 26.4504C190.053 26.8548 189.939 27.2943 189.939 27.769C189.939 28.7008 190.194 29.3601 190.704 29.7469C191.214 30.1161 191.961 30.3007 192.945 30.3007C194 30.3007 194.923 30.1161 195.714 29.7469C196.506 29.3777 197.306 28.7799 198.114 27.9536V24.1561ZM183.399 11.7352C185.052 10.276 186.88 9.1948 188.884 8.49157C190.906 7.77075 193.069 7.41034 195.372 7.41034C197.024 7.41034 198.51 7.68285 199.828 8.22785C201.165 8.75528 202.29 9.50247 203.204 10.4694C204.136 11.4188 204.848 12.5528 205.34 13.8713C205.832 15.1899 206.078 16.6315 206.078 18.1962V35.2848H202.334C201.56 35.2848 200.971 35.1794 200.567 34.9684C200.18 34.7574 199.855 34.3179 199.591 33.6498L199.011 32.1466C198.325 32.7268 197.666 33.2367 197.033 33.6762C196.4 34.1157 195.741 34.4937 195.055 34.8102C194.387 35.109 193.666 35.3288 192.893 35.4694C192.137 35.6277 191.293 35.7068 190.361 35.7068C189.113 35.7068 187.979 35.5485 186.959 35.2321C185.939 34.8981 185.069 34.4146 184.348 33.7817C183.645 33.1488 183.1 32.3664 182.713 31.4346C182.327 30.4853 182.133 29.3952 182.133 28.1646C182.133 27.18 182.379 26.1867 182.872 25.1846C183.364 24.1649 184.217 23.2419 185.43 22.4156C186.643 21.5717 188.278 20.8685 190.335 20.3059C192.392 19.7433 194.985 19.4269 198.114 19.3566V18.1962C198.114 16.5964 197.78 15.4448 197.112 14.7416C196.462 14.0208 195.53 13.6603 194.317 13.6603C193.35 13.6603 192.559 13.7658 191.943 13.9768C191.328 14.1878 190.774 14.4251 190.282 14.6888C189.807 14.9525 189.341 15.1899 188.884 15.4009C188.427 15.6118 187.882 15.7173 187.249 15.7173C186.687 15.7173 186.212 15.5767 185.825 15.2954C185.438 15.0141 185.122 14.68 184.876 14.2933L183.399 11.7352Z" fill="#8840FF"/>
<path d="M211.304 35.2848V7.93777H216.367C217.387 7.93777 218.055 8.39487 218.372 9.30908L218.82 10.7859C219.277 10.3112 219.752 9.88046 220.244 9.49368C220.736 9.08932 221.264 8.74649 221.826 8.4652C222.406 8.16632 223.022 7.93777 223.672 7.77954C224.34 7.60373 225.07 7.51583 225.861 7.51583C227.514 7.51583 228.876 7.94656 229.949 8.80802C231.039 9.65191 231.865 10.7859 232.427 12.2099C232.885 11.366 233.438 10.6452 234.089 10.0475C234.757 9.44973 235.469 8.96625 236.225 8.59705C236.998 8.22785 237.807 7.95535 238.651 7.77954C239.513 7.60373 240.365 7.51583 241.209 7.51583C242.774 7.51583 244.163 7.75317 245.376 8.22785C246.589 8.68496 247.6 9.36182 248.408 10.2584C249.235 11.1375 249.859 12.2275 250.281 13.5285C250.703 14.8119 250.914 16.2711 250.914 17.9061V35.2848H242.739V17.9061C242.739 15.0756 241.526 13.6603 239.099 13.6603C237.992 13.6603 237.069 14.0295 236.33 14.7679C235.61 15.4888 235.249 16.5348 235.249 17.9061V35.2848H227.074V17.9061C227.074 16.3414 226.766 15.2426 226.151 14.6097C225.536 13.9768 224.63 13.6603 223.435 13.6603C222.696 13.6603 221.993 13.8274 221.325 14.1614C220.675 14.4954 220.059 14.9437 219.479 15.5063V35.2848H211.304Z" fill="#8840FF"/>
</svg>
