<svg width="77" height="92" viewBox="0 0 77 92" fill="none" xmlns="http://www.w3.org/2000/svg">
<path d="M25.0893 45.683C30.688 42.4761 37.112 41.0014 43.5489 41.4453L39.3501 23.1549L20.8905 27.3926L25.0893 45.683Z" fill="white"/>
<path d="M35.0159 88.9246L53.4755 84.687L48.5705 63.32C42.9604 66.4979 36.5453 67.9706 30.1109 67.5576L35.0159 88.9246Z" fill="white"/>
<path d="M65.9357 81.8265L54.7331 19.6236L42.4267 22.4487L46.9009 41.9389C52.2609 43.1375 55.9449 46.0649 56.8278 49.9107C57.7106 53.7564 55.6722 57.9975 51.3716 61.4138L56.5521 83.9807L65.9357 81.8265Z" fill="#8840FF"/>
<path d="M22.7095 91.7496L31.9393 89.6308L26.9126 67.0287C21.5527 65.8301 17.8686 62.9026 16.9858 59.0569C16.103 55.2111 18.1414 50.9701 22.4419 47.5538L17.9677 28.0635L5.66132 30.8886L22.7095 91.7496Z" fill="#8840FF"/>
<path fill-rule="evenodd" clip-rule="evenodd" d="M5.75901 17.9112L4.22071 18.2644L4.23837 18.3413C3.01442 18.6223 1.95222 19.3779 1.28543 20.4421C0.61865 21.5062 0.401904 22.7916 0.682876 24.0156C0.963848 25.2395 1.71952 26.3017 2.78366 26.9685C3.8478 27.6353 5.13324 27.8521 6.35718 27.5711L52.5062 16.977C53.7301 16.696 54.7923 15.9404 55.4591 14.8762C56.1259 13.8121 56.3427 12.5267 56.0617 11.3027C55.7807 10.0788 55.025 9.01656 53.9609 8.34977C52.8968 7.68299 51.6113 7.46624 50.3874 7.74722L48.8491 8.10035L48.4959 6.56205C48.2641 5.55199 47.8355 4.59749 47.2348 3.75304C46.634 2.9086 45.8728 2.19076 44.9946 1.64049C44.1165 1.09023 43.1385 0.718324 42.1166 0.546012C41.0947 0.3737 40.0488 0.404355 39.0388 0.636227C37.3706 1.00845 35.8722 1.92174 34.777 3.23393L33.5 4.72541L32.2431 3.20027C31.3073 2.09712 30.0864 1.27239 28.7136 0.816204C27.3409 0.360016 25.8692 0.289921 24.4593 0.613578C23.0494 0.937236 21.7556 1.64219 20.7192 2.65142C19.6829 3.66064 18.9439 4.9353 18.583 6.33612L18.0994 8.17985L16.3767 7.37699C14.7942 6.6624 13.0175 6.49997 11.3317 6.91575C9.29179 7.38404 7.52145 8.6435 6.41014 10.4171C5.29884 12.1906 4.93759 14.333 5.40588 16.3729L5.75901 17.9112ZM16.4012 21.9452L19.4775 21.239C19.3839 20.8311 19.4561 20.4026 19.6784 20.048C19.9006 19.6933 20.2546 19.4414 20.6626 19.3478C21.0705 19.2541 21.499 19.3264 21.8536 19.5486C22.2083 19.7708 22.4602 20.1249 22.5538 20.5328L25.6301 19.8266C25.3492 18.6028 24.5936 17.5407 23.5295 16.874C22.4655 16.2073 21.1802 15.9905 19.9564 16.2715C18.7326 16.5524 17.6705 17.308 17.0037 18.3721C16.337 19.4361 16.1203 20.7214 16.4012 21.9452ZM15.4669 10.8246L16.1731 13.9008C14.9493 14.1818 13.8872 14.9374 13.2205 16.0014C12.5537 17.0654 12.337 18.3508 12.618 19.5746L9.54168 20.2808C9.07344 18.2411 9.43465 16.0989 10.5458 14.3255C11.657 12.5521 13.4272 11.2928 15.4669 10.8246ZM28.4798 11.0757C28.8878 10.982 29.3162 11.0543 29.6709 11.2765C30.0256 11.4988 30.2774 11.8528 30.3711 12.2607L33.4474 11.5545C33.1664 10.3307 32.4108 9.26862 31.3468 8.6019C30.2828 7.93518 28.9975 7.71846 27.7736 7.9994C26.5498 8.28035 25.4877 9.03594 24.821 10.1C24.1543 11.164 23.9376 12.4493 24.2185 13.6731L27.2948 12.9669C27.2011 12.559 27.2734 12.1306 27.4956 11.7759C27.7179 11.4212 28.0719 11.1693 28.4798 11.0757ZM48.7047 14.5292L45.6284 15.2354C45.3474 14.0116 44.5918 12.9495 43.5278 12.2828C42.4638 11.616 41.1785 11.3993 39.9546 11.6803L39.2484 8.60397C41.2881 8.13573 43.4303 8.49694 45.2037 9.60814C46.9771 10.7193 48.2364 12.4895 48.7047 14.5292Z" fill="#FFF900"/>
<path d="M71.8185 31.3483C72.402 31.5702 73.0382 31.6141 73.6466 31.4744C74.4625 31.2871 75.1706 30.7834 75.615 30.0741C76.0595 29.3647 76.204 28.5078 76.0167 27.692C75.877 27.0835 75.5601 26.5302 75.1059 26.1019C74.6517 25.6736 74.0808 25.3896 73.4652 25.2858C72.8496 25.182 72.2171 25.2631 71.6476 25.5188C71.0781 25.7744 70.5973 26.1933 70.2658 26.7223C69.9343 27.2512 69.7672 27.8666 69.7855 28.4906C69.8038 29.1146 70.0067 29.7192 70.3685 30.2278C70.7304 30.7365 71.235 31.1264 71.8185 31.3483Z" fill="#FFF900"/>
<path d="M66.207 20.2276L69.2833 19.5214C68.9087 17.8897 67.9012 16.4736 66.4825 15.5846C65.0638 14.6956 63.3501 14.4067 61.7183 14.7813L62.4245 17.8576C63.2404 17.6703 64.0973 17.8147 64.8066 18.2592C65.516 18.7037 66.0197 19.4118 66.207 20.2276Z" fill="#FFF900"/>
<path d="M28.3426 64.158C31.8719 64.7109 35.4753 64.5659 38.9487 63.7313C42.4384 62.9675 45.7442 61.5263 48.679 59.4895C52.4997 56.734 54.3939 53.4167 53.7512 50.617C53.1085 47.8173 49.9571 45.6582 45.3171 44.8449C41.7879 44.292 38.1845 44.437 34.7111 45.2717C31.2214 46.0354 27.9155 47.4766 24.9808 49.5134C21.1601 52.2689 19.2659 55.5862 19.9086 58.3859C20.5513 61.1857 23.7027 63.3447 28.3426 64.158Z" fill="#FFF900"/>
</svg>
